<svg width="92" height="92" viewBox="0 0 92 92" fill="none" xmlns="http://www.w3.org/2000/svg">
<g clip-path="url(#clip0_6311_27726)">
<g filter="url(#filter0_ii_6311_27726)">
<circle cx="46" cy="46" r="46" fill="url(#paint0_linear_6311_27726)"/>
</g>
<g filter="url(#filter1_i_6311_27726)">
<circle cx="46.5227" cy="45.9999" r="34.0028" fill="url(#paint1_linear_6311_27726)"/>
</g>
<g filter="url(#filter2_dd_6311_27726)">
<path d="M52.5227 40.0003L57.0227 40.001C59.508 40.0014 61.523 37.987 61.5234 35.5017C61.5238 33.0164 59.5094 31.0014 57.0241 31.001C54.5388 31.0006 52.5238 33.015 52.5234 35.5003L52.5227 40.0003L40.5234 40.0002L40.5227 35.5003C40.5223 33.015 38.5073 31.0006 36.022 31.001C33.5367 31.0014 31.5223 33.0164 31.5227 35.5017C31.5231 37.987 33.5381 40.0014 36.0234 40.001L40.5234 40.0002L40.5227 52.0002H52.5227V40.0003Z" fill="white"/>
<path d="M52.5227 52.0002L57.0227 52.001C59.508 52.0006 61.523 54.015 61.5234 56.5003C61.5238 58.9855 59.5094 61.0006 57.0241 61.001C54.5388 61.0014 52.5238 58.987 52.5234 56.5017L52.5227 52.0002Z" fill="white"/>
<path d="M36.0234 52.001L40.5234 52.0017L40.5227 56.5017C40.5223 58.987 38.5073 61.0014 36.022 61.001C33.5367 61.0006 31.5223 58.9855 31.5227 56.5003C31.5231 54.015 33.5381 52.0006 36.0234 52.001Z" fill="white"/>
</g>
</g>
<defs>
<filter id="filter0_ii_6311_27726" x="0" y="-1.20227" width="92" height="94.4045" filterUnits="userSpaceOnUse" color-interpolation-filters="sRGB">
<feFlood flood-opacity="0" result="BackgroundImageFix"/>
<feBlend mode="normal" in="SourceGraphic" in2="BackgroundImageFix" result="shape"/>
<feColorMatrix in="SourceAlpha" type="matrix" values="0 0 0 0 0 0 0 0 0 0 0 0 0 0 0 0 0 0 127 0" result="hardAlpha"/>
<feOffset dy="-2.00379"/>
<feGaussianBlur stdDeviation="0.601136"/>
<feComposite in2="hardAlpha" operator="arithmetic" k2="-1" k3="1"/>
<feColorMatrix type="matrix" values="0 0 0 0 0 0 0 0 0 0 0 0 0 0 0 0 0 0 0.5 0"/>
<feBlend mode="normal" in2="shape" result="effect1_innerShadow_6311_27726"/>
<feColorMatrix in="SourceAlpha" type="matrix" values="0 0 0 0 0 0 0 0 0 0 0 0 0 0 0 0 0 0 127 0" result="hardAlpha"/>
<feOffset dy="1.20227"/>
<feGaussianBlur stdDeviation="0.601136"/>
<feComposite in2="hardAlpha" operator="arithmetic" k2="-1" k3="1"/>
<feColorMatrix type="matrix" values="0 0 0 0 1 0 0 0 0 1 0 0 0 0 1 0 0 0 1 0"/>
<feBlend mode="normal" in2="effect1_innerShadow_6311_27726" result="effect2_innerShadow_6311_27726"/>
</filter>
<filter id="filter1_i_6311_27726" x="12.5199" y="11.9971" width="68.0056" height="68.0054" filterUnits="userSpaceOnUse" color-interpolation-filters="sRGB">
<feFlood flood-opacity="0" result="BackgroundImageFix"/>
<feBlend mode="normal" in="SourceGraphic" in2="BackgroundImageFix" result="shape"/>
<feColorMatrix in="SourceAlpha" type="matrix" values="0 0 0 0 0 0 0 0 0 0 0 0 0 0 0 0 0 0 127 0" result="hardAlpha"/>
<feOffset dy="1.00189"/>
<feComposite in2="hardAlpha" operator="arithmetic" k2="-1" k3="1"/>
<feColorMatrix type="matrix" values="0 0 0 0 0 0 0 0 0 0 0 0 0 0 0 0 0 0 0.15 0"/>
<feBlend mode="normal" in2="shape" result="effect1_innerShadow_6311_27726"/>
</filter>
<filter id="filter2_dd_6311_27726" x="7.52271" y="7.00098" width="78.0007" height="78" filterUnits="userSpaceOnUse" color-interpolation-filters="sRGB">
<feFlood flood-opacity="0" result="BackgroundImageFix"/>
<feColorMatrix in="SourceAlpha" type="matrix" values="0 0 0 0 0 0 0 0 0 0 0 0 0 0 0 0 0 0 127 0" result="hardAlpha"/>
<feOffset/>
<feGaussianBlur stdDeviation="2"/>
<feComposite in2="hardAlpha" operator="out"/>
<feColorMatrix type="matrix" values="0 0 0 0 1 0 0 0 0 1 0 0 0 0 1 0 0 0 0.3 0"/>
<feBlend mode="normal" in2="BackgroundImageFix" result="effect1_dropShadow_6311_27726"/>
<feColorMatrix in="SourceAlpha" type="matrix" values="0 0 0 0 0 0 0 0 0 0 0 0 0 0 0 0 0 0 127 0" result="hardAlpha"/>
<feOffset/>
<feGaussianBlur stdDeviation="12"/>
<feComposite in2="hardAlpha" operator="out"/>
<feColorMatrix type="matrix" values="0 0 0 0 1 0 0 0 0 1 0 0 0 0 1 0 0 0 0.4 0"/>
<feBlend mode="normal" in2="effect1_dropShadow_6311_27726" result="effect2_dropShadow_6311_27726"/>
<feBlend mode="normal" in="SourceGraphic" in2="effect2_dropShadow_6311_27726" result="shape"/>
</filter>
<linearGradient id="paint0_linear_6311_27726" x1="46" y1="0" x2="46" y2="92" gradientUnits="userSpaceOnUse">
<stop stop-color="white"/>
<stop offset="1" stop-color="#999999"/>
</linearGradient>
<linearGradient id="paint1_linear_6311_27726" x1="46.5227" y1="11.9971" x2="46.5227" y2="80.0027" gradientUnits="userSpaceOnUse">
<stop stop-color="#CECECE"/>
<stop offset="1" stop-color="#525252"/>
</linearGradient>
<clipPath id="clip0_6311_27726">
<rect width="92" height="92" fill="white"/>
</clipPath>
</defs>
</svg>
