<svg width="92" height="92" viewBox="0 0 92 92" fill="none" xmlns="http://www.w3.org/2000/svg">
<g filter="url(#filter0_ii_6311_27721)">
<path d="M4.25426 18.3642C4.49927 14.7959 7.32244 12.0717 10.8563 11.52C15.1334 10.8523 20.8863 9.80971 25.2806 8.47913C30.5918 6.87091 37.8876 3.64021 42.1637 1.66395C44.399 0.630847 46.976 0.630847 49.2113 1.66395C53.4874 3.64021 60.7832 6.87091 66.0944 8.47913C70.4887 9.80971 76.2416 10.8523 80.5187 11.52C84.0526 12.0717 86.8757 14.7959 87.1207 18.3642C88.2281 34.492 87.4267 78.3975 47.9132 91.3172C46.4867 91.7836 44.8883 91.7836 43.4618 91.3172C3.94832 78.3975 3.14687 34.492 4.25426 18.3642Z" fill="url(#paint0_linear_6311_27721)"/>
</g>
<g filter="url(#filter1_i_6311_27721)">
<path d="M15.6836 25.2813C15.8609 22.6018 17.9717 20.5462 20.6221 20.1145C23.702 19.6129 27.7815 18.8405 30.9101 17.8593C34.6863 16.6751 39.8478 14.3178 42.9649 12.8296C44.6848 12.0085 46.6902 12.0085 48.4101 12.8296C51.5272 14.3178 56.6887 16.6751 60.4649 17.8593C63.5935 18.8405 67.673 19.6129 70.7529 20.1145C73.4033 20.5462 75.5141 22.6018 75.6914 25.2813C76.4915 37.3683 75.9075 70.2167 47.4082 79.9509C46.3065 80.3272 45.0685 80.3272 43.9668 79.9509C15.4675 70.2167 14.8835 37.3683 15.6836 25.2813Z" fill="url(#paint1_linear_6311_27721)"/>
</g>
<g filter="url(#filter2_dd_6311_27721)">
<path fill-rule="evenodd" clip-rule="evenodd" d="M36.0625 39.0819V36C36.0625 30.4081 40.5956 25.875 46.1875 25.875C51.7794 25.875 56.3125 30.4081 56.3125 36V39.0819C57.9846 39.2068 59.0735 39.5221 59.8695 40.318C61.1875 41.636 61.1875 43.7574 61.1875 48C61.1875 52.2426 61.1875 54.364 59.8695 55.682C58.5515 57 56.4301 57 52.1875 57H40.1875C35.9449 57 33.8235 57 32.5055 55.682C31.1875 54.364 31.1875 52.2426 31.1875 48C31.1875 43.7574 31.1875 41.636 32.5055 40.318C33.3015 39.5221 34.3904 39.2068 36.0625 39.0819ZM38.3125 36C38.3125 31.6508 41.8383 28.125 46.1875 28.125C50.5367 28.125 54.0625 31.6508 54.0625 36V39.0054C53.488 39 52.8648 39 52.1875 39H40.1875C39.5102 39 38.887 39 38.3125 39.0054V36ZM49.1875 48C49.1875 49.6569 47.8444 51 46.1875 51C44.5306 51 43.1875 49.6569 43.1875 48C43.1875 46.3431 44.5306 45 46.1875 45C47.8444 45 49.1875 46.3431 49.1875 48Z" fill="white"/>
</g>
<defs>
<filter id="filter0_ii_6311_27721" x="4" y="-0.26084" width="83.375" height="93.0778" filterUnits="userSpaceOnUse" color-interpolation-filters="sRGB">
<feFlood flood-opacity="0" result="BackgroundImageFix"/>
<feBlend mode="normal" in="SourceGraphic" in2="BackgroundImageFix" result="shape"/>
<feColorMatrix in="SourceAlpha" type="matrix" values="0 0 0 0 0 0 0 0 0 0 0 0 0 0 0 0 0 0 127 0" result="hardAlpha"/>
<feOffset dy="-1.91667"/>
<feGaussianBlur stdDeviation="0.575"/>
<feComposite in2="hardAlpha" operator="arithmetic" k2="-1" k3="1"/>
<feColorMatrix type="matrix" values="0 0 0 0 0 0 0 0 0 0 0 0 0 0 0 0 0 0 0.5 0"/>
<feBlend mode="normal" in2="shape" result="effect1_innerShadow_6311_27721"/>
<feColorMatrix in="SourceAlpha" type="matrix" values="0 0 0 0 0 0 0 0 0 0 0 0 0 0 0 0 0 0 127 0" result="hardAlpha"/>
<feOffset dy="1.15"/>
<feGaussianBlur stdDeviation="0.575"/>
<feComposite in2="hardAlpha" operator="arithmetic" k2="-1" k3="1"/>
<feColorMatrix type="matrix" values="0 0 0 0 1 0 0 0 0 1 0 0 0 0 1 0 0 0 1 0"/>
<feBlend mode="normal" in2="effect1_innerShadow_6311_27721" result="effect2_innerShadow_6311_27721"/>
</filter>
<filter id="filter1_i_6311_27721" x="15.5" y="12.2139" width="60.375" height="68.019" filterUnits="userSpaceOnUse" color-interpolation-filters="sRGB">
<feFlood flood-opacity="0" result="BackgroundImageFix"/>
<feBlend mode="normal" in="SourceGraphic" in2="BackgroundImageFix" result="shape"/>
<feColorMatrix in="SourceAlpha" type="matrix" values="0 0 0 0 0 0 0 0 0 0 0 0 0 0 0 0 0 0 127 0" result="hardAlpha"/>
<feOffset dy="0.958333"/>
<feComposite in2="hardAlpha" operator="arithmetic" k2="-1" k3="1"/>
<feColorMatrix type="matrix" values="0 0 0 0 0 0 0 0 0 0 0 0 0 0 0 0 0 0 0.15 0"/>
<feBlend mode="normal" in2="shape" result="effect1_innerShadow_6311_27721"/>
</filter>
<filter id="filter2_dd_6311_27721" x="7.1875" y="1.875" width="78" height="79.125" filterUnits="userSpaceOnUse" color-interpolation-filters="sRGB">
<feFlood flood-opacity="0" result="BackgroundImageFix"/>
<feColorMatrix in="SourceAlpha" type="matrix" values="0 0 0 0 0 0 0 0 0 0 0 0 0 0 0 0 0 0 127 0" result="hardAlpha"/>
<feOffset/>
<feGaussianBlur stdDeviation="2"/>
<feComposite in2="hardAlpha" operator="out"/>
<feColorMatrix type="matrix" values="0 0 0 0 1 0 0 0 0 1 0 0 0 0 1 0 0 0 0.3 0"/>
<feBlend mode="normal" in2="BackgroundImageFix" result="effect1_dropShadow_6311_27721"/>
<feColorMatrix in="SourceAlpha" type="matrix" values="0 0 0 0 0 0 0 0 0 0 0 0 0 0 0 0 0 0 127 0" result="hardAlpha"/>
<feOffset/>
<feGaussianBlur stdDeviation="12"/>
<feComposite in2="hardAlpha" operator="out"/>
<feColorMatrix type="matrix" values="0 0 0 0 1 0 0 0 0 1 0 0 0 0 1 0 0 0 0.4 0"/>
<feBlend mode="normal" in2="effect1_dropShadow_6311_27721" result="effect2_dropShadow_6311_27721"/>
<feBlend mode="normal" in="SourceGraphic" in2="effect2_dropShadow_6311_27721" result="shape"/>
</filter>
<linearGradient id="paint0_linear_6311_27721" x1="45.6875" y1="0" x2="45.6875" y2="92" gradientUnits="userSpaceOnUse">
<stop stop-color="white"/>
<stop offset="1" stop-color="#999999"/>
</linearGradient>
<linearGradient id="paint1_linear_6311_27721" x1="45.6875" y1="11.5" x2="45.6875" y2="80.5" gradientUnits="userSpaceOnUse">
<stop stop-color="#CECECE"/>
<stop offset="1" stop-color="#525252"/>
</linearGradient>
</defs>
</svg>
