<svg width="28" height="28" viewBox="0 0 28 28" fill="none" xmlns="http://www.w3.org/2000/svg">
<g clip-path="url(#clip0_6195_1625)">
<path d="M14.127 0.2632C14.4529 0.966058 14.8939 1.60957 15.4318 2.1672C15.9718 2.72313 16.6024 3.18328 17.2966 3.528L17.543 3.6512L17.2966 3.7744C16.6088 4.11193 15.9838 4.56458 15.4486 5.1128C14.9077 5.67791 14.4615 6.32649 14.127 7.0336L14.0038 7.3024L13.8806 7.0336C13.5533 6.33151 13.1124 5.68821 12.5758 5.1296C12.0339 4.57482 11.4014 4.11652 10.7054 3.7744L10.459 3.6512L10.7054 3.528C11.3932 3.18813 12.0181 2.73363 12.5534 2.184C13.0989 1.62148 13.5474 0.972412 13.8806 0.2632L14.0038 0L14.127 0.2632Z" fill="white"/>
<path d="M4.33495 4.2448C5.05334 4.50814 5.81004 4.65191 6.57495 4.6704C7.34972 4.67781 8.12022 4.55475 8.85415 4.3064L9.11735 4.2224L9.05575 4.48C8.80925 5.20072 8.68803 5.95835 8.69735 6.72C8.70923 7.50381 8.85312 8.28001 9.12295 9.016L9.21815 9.2904L8.96055 9.2064C8.23302 8.94104 7.46678 8.79725 6.69255 8.7808C5.91756 8.77056 5.14659 8.89369 4.41335 9.1448L4.15015 9.2288L4.22295 8.96C4.46661 8.23857 4.58775 7.48144 4.58135 6.72C4.56623 5.93834 4.42244 5.16451 4.15575 4.4296L4.06055 4.144L4.33495 4.2448Z" fill="white"/>
<path d="M0.2632 13.9384C0.966058 13.6125 1.60957 13.1715 2.1672 12.6336C2.72313 12.0935 3.18328 11.463 3.528 10.7688L3.6512 10.5224L3.7744 10.7688C4.11193 11.4566 4.56458 12.0816 5.1128 12.6168C5.67791 13.1577 6.32649 13.6039 7.0336 13.9384L7.3024 14.0616L7.0336 14.1848C6.33151 14.5121 5.68821 14.9529 5.1296 15.4896C4.57482 16.0315 4.11652 16.664 3.7744 17.36L3.6512 17.6064L3.528 17.36C3.18813 16.6722 2.73363 16.0473 2.184 15.512C1.62148 14.9665 0.972412 14.518 0.2632 14.1848L0 14.0616L0.2632 13.9384Z" fill="white"/>
<path d="M4.24585 23.6656C4.50918 22.9472 4.65296 22.1905 4.67145 21.4256C4.67885 20.6508 4.5558 19.8803 4.30745 19.1464L4.22345 18.8832L4.48665 18.9728C5.20737 19.2193 5.965 19.3405 6.72665 19.3312C7.51046 19.3193 8.28666 19.1754 9.02265 18.9056L9.29705 18.8104L9.19625 19.0848C8.93389 19.8035 8.79014 20.56 8.77065 21.3248C8.76041 22.0998 8.88354 22.8708 9.13465 23.604L9.21865 23.8672L8.96105 23.7776C8.23962 23.5339 7.48249 23.4128 6.72105 23.4192C5.93939 23.4343 5.16556 23.5781 4.43065 23.8448L4.15625 23.94L4.24585 23.6656Z" fill="white"/>
<path d="M13.875 27.7368C13.549 27.0339 13.108 26.3904 12.5702 25.8328C12.0301 25.2768 11.3996 24.8167 10.7054 24.472L10.459 24.3488L10.7054 24.2256C11.3932 23.8881 12.0182 23.4354 12.5534 22.8872C13.0943 22.3221 13.5405 21.6735 13.875 20.9664L13.9982 20.6976L14.1214 20.9664C14.4487 21.6685 14.8895 22.3118 15.4262 22.8704C15.9681 23.4252 16.6006 23.8835 17.2966 24.2256L17.543 24.3488L17.2966 24.472C16.6088 24.8119 15.9838 25.2663 15.4486 25.816C14.9051 26.3789 14.4585 27.028 14.127 27.7368L14.0038 28L13.875 27.7368Z" fill="white"/>
<path d="M23.6654 23.7552C22.9471 23.4919 22.1903 23.3481 21.4254 23.3296C20.6507 23.3222 19.8802 23.4453 19.1462 23.6936L18.883 23.7776L18.9726 23.5144C19.2191 22.7937 19.3404 22.0361 19.331 21.2744C19.3192 20.4906 19.1753 19.7144 18.9054 18.9784L18.8102 18.704L19.0846 18.8048C19.8033 19.0672 20.5598 19.2109 21.3246 19.2304C22.0996 19.2407 22.8706 19.1175 23.6038 18.8664L23.867 18.7824L23.7774 19.0456C23.5338 19.767 23.4126 20.5242 23.419 21.2856C23.4342 22.0673 23.5779 22.8411 23.8446 23.576L23.9398 23.8504L23.6654 23.7552Z" fill="white"/>
<path d="M27.7365 14.0616C27.0337 14.3876 26.3902 14.8286 25.8325 15.3664C25.2766 15.9065 24.8165 16.537 24.4717 17.2312L24.3485 17.4776L24.2253 17.2312C23.8878 16.5434 23.4351 15.9184 22.8869 15.3832C22.3218 14.8423 21.6732 14.3961 20.9661 14.0616L20.7197 13.9384L20.9885 13.8152C21.6906 13.4879 22.3339 13.0471 22.8925 12.5104C23.4393 11.9668 23.89 11.3343 24.2253 10.64L24.3485 10.3936L24.4717 10.64C24.8116 11.3278 25.2661 11.9528 25.8157 12.488C26.3787 13.0315 27.0277 13.4781 27.7365 13.8096L27.9997 13.9328L27.7365 14.0616Z" fill="white"/>
<path d="M23.7556 4.33441C23.4922 5.0528 23.3485 5.8095 23.33 6.57441C23.3226 7.34919 23.4456 8.11968 23.694 8.85361L23.778 9.11681L23.5204 9.05521C22.7996 8.80871 22.042 8.68749 21.2804 8.69681C20.4966 8.7087 19.7204 8.85258 18.9844 9.12241L18.71 9.21761L18.8108 8.94321C19.0761 8.21569 19.2199 7.44945 19.2364 6.67521C19.2466 5.90023 19.1235 5.12926 18.8724 4.39601L18.7884 4.13281L19.0516 4.22241C19.773 4.46608 20.5301 4.58722 21.2916 4.58081C22.0732 4.5657 22.8471 4.42191 23.582 4.15521L23.8564 4.06001L23.7556 4.33441Z" fill="white"/>
<line x1="6.0108" y1="6.08342" x2="20.9839" y2="21.0566" stroke="white" stroke-width="0.56"/>
<line x1="6.1435" y1="21.8136" x2="21.1167" y2="6.8404" stroke="white" stroke-width="0.56"/>
<path d="M13.7197 3.47703L14.2797 3.47703L14.2797 24.652L13.7197 24.652L13.7197 3.47703Z" fill="white"/>
<line x1="3.69366" y1="14.063" x2="24.8689" y2="14.063" stroke="white" stroke-width="0.56"/>
</g>
<defs>
<clipPath id="clip0_6195_1625">
<rect width="28" height="28" fill="white"/>
</clipPath>
</defs>
</svg>
